<svg width="41" height="36" viewBox="0 0 41 36" fill="none" xmlns="http://www.w3.org/2000/svg">
<path d="M1.75 22.75C2.08152 22.75 2.39946 22.8817 2.63388 23.1161C2.8683 23.3505 3 23.6685 3 24V30.25C3 30.913 3.26339 31.5489 3.73223 32.0178C4.20107 32.4866 4.83696 32.75 5.5 32.75H35.5C36.163 32.75 36.7989 32.4866 37.2678 32.0178C37.7366 31.5489 38 30.913 38 30.25V24C38 23.6685 38.1317 23.3505 38.3661 23.1161C38.6005 22.8817 38.9185 22.75 39.25 22.75C39.5815 22.75 39.8995 22.8817 40.1339 23.1161C40.3683 23.3505 40.5 23.6685 40.5 24V30.25C40.5 31.5761 39.9732 32.8479 39.0355 33.7855C38.0979 34.7232 36.8261 35.25 35.5 35.25H5.5C4.17392 35.25 2.90215 34.7232 1.96447 33.7855C1.02678 32.8479 0.5 31.5761 0.5 30.25V24C0.5 23.6685 0.631696 23.3505 0.866117 23.1161C1.10054 22.8817 1.41848 22.75 1.75 22.75Z" fill="#878787"/>
<path d="M19.615 0.865007C19.7311 0.748599 19.8691 0.656241 20.0209 0.593225C20.1728 0.530209 20.3356 0.497772 20.5 0.497772C20.6644 0.497772 20.8272 0.530209 20.9791 0.593225C21.1309 0.656241 21.2689 0.748599 21.385 0.865007L28.885 8.36501C29.1197 8.59972 29.2516 8.91807 29.2516 9.25001C29.2516 9.58194 29.1197 9.90029 28.885 10.135C28.6503 10.3697 28.3319 10.5016 28 10.5016C27.6681 10.5016 27.3497 10.3697 27.115 10.135L21.75 4.76751V26.75C21.75 27.0815 21.6183 27.3995 21.3839 27.6339C21.1495 27.8683 20.8315 28 20.5 28C20.1685 28 19.8505 27.8683 19.6161 27.6339C19.3817 27.3995 19.25 27.0815 19.25 26.75V4.76751L13.885 10.135C13.7688 10.2512 13.6308 10.3434 13.479 10.4063C13.3271 10.4692 13.1644 10.5016 13 10.5016C12.8356 10.5016 12.6729 10.4692 12.521 10.4063C12.3692 10.3434 12.2312 10.2512 12.115 10.135C11.9988 10.0188 11.9066 9.88081 11.8437 9.72896C11.7808 9.57712 11.7484 9.41436 11.7484 9.25001C11.7484 9.08565 11.7808 8.92289 11.8437 8.77105C11.9066 8.6192 11.9988 8.48122 12.115 8.36501L19.615 0.865007Z" fill="#878787"/>
</svg>
